<svg width="100" height="100" viewBox="0 0 100 100" fill="none" xmlns="http://www.w3.org/2000/svg">
<rect x="1" y="1" width="98" height="98" rx="5" fill="#222D35" stroke="#38A576" stroke-width="2"/>
<g clip-path="url(#clip0_3995_20028)">
<path d="M27.9009 80.7227H74.5359L84.2527 47.9224C84.2527 47.9224 74.5788 51.6944 70.7078 53.7314C70.8078 46.7914 70.8588 58.4175 70.7078 33.1455C66.3769 36.8379 62.3892 40.915 58.7937 45.3267C57.0507 38.4027 56.0329 29.5654 54.6209 13.6904L54.6138 13.6133C49.1318 20.7533 42.5019 36.1794 41.3499 46.5024C37.4029 41.1524 35.7498 39.2395 32.1748 32.3555C29.3748 39.6225 29.3128 46.6704 29.6248 53.7314C26.6648 51.6724 22.2298 48.6737 16.3818 45.3267C23.0838 65.9927 27.9009 80.7227 27.9009 80.7227Z" fill="white" fill-opacity="0.2" stroke="#F2F2F2" stroke-width="5"/>
</g>
<path d="M64.2853 63.266H52.0404V75.5109H47.9588V63.266H35.7139V59.1844H47.9588V46.9395H52.0404V59.1844H64.2853V63.266Z" fill="#F2F2F2"/>
<defs>
<clipPath id="clip0_3995_20028">
<rect width="76.1" height="76.223" fill="white" transform="translate(12 7)"/>
</clipPath>
</defs>
</svg>
