<svg width="25" height="25" viewBox="0 0 25 25" fill="none" xmlns="http://www.w3.org/2000/svg">
<g clip-path="url(#clip0_6003_283)">
<path opacity="0.3" d="M20.5 4.5H8.5V16.5H20.5V4.5ZM19.5 11.5H15.5V15.5H13.5V11.5H9.5V9.5H13.5V5.5H15.5V9.5H19.5V11.5Z" fill="#f2f2f2"/>
<path d="M4.5 22.5H18.5V20.5H4.5V6.5H2.5V20.5C2.5 21.6 3.4 22.5 4.5 22.5ZM8.5 18.5H20.5C21.6 18.5 22.5 17.6 22.5 16.5V4.5C22.5 3.4 21.6 2.5 20.5 2.5H8.5C7.4 2.5 6.5 3.4 6.5 4.5V16.5C6.5 17.6 7.4 18.5 8.5 18.5ZM8.5 4.5H20.5V16.5H8.5V4.5ZM15.5 5.5H13.5V9.5H9.5V11.5H13.5V15.5H15.5V11.5H19.5V9.5H15.5V5.5Z" fill="#f2f2f2"/>
</g>
<defs>
<clipPath id="clip0_6003_283">
<rect width="24" height="24" fill="white" transform="translate(0.5 0.5)"/>
</clipPath>
</defs>
</svg>
