<svg width="25" height="24" viewBox="0 0 25 24" fill="none" xmlns="http://www.w3.org/2000/svg">
  <path opacity="0.3"
    d="M19.7797 8.6L19.0797 7.39L17.8097 7.9L16.7497 8.33L15.8397 7.63C15.4497 7.33 15.0397 7.09 14.6097 6.92L13.5497 6.49L13.3897 5.36L13.1997 4H11.7997L11.6097 5.35L11.4497 6.48L10.3897 6.92C9.97973 7.09 9.56973 7.33 9.13973 7.65L8.23973 8.33L7.18973 7.91L5.91973 7.39L5.21973 8.6L6.29973 9.44L7.18973 10.14L7.04973 11.27C7.01973 11.57 6.99973 11.8 6.99973 12C6.99973 12.2 7.01973 12.43 7.04973 12.73L7.18973 13.86L6.29973 14.56L5.21973 15.4L5.91973 16.61L7.18973 16.1L8.24973 15.67L9.15973 16.37C9.54973 16.67 9.95973 16.91 10.3897 17.08L11.4497 17.51L11.6097 18.64L11.7997 20H13.1897L13.3797 18.65L13.5397 17.52L14.5997 17.09C15.0097 16.92 15.4197 16.68 15.8497 16.36L16.7497 15.68L17.7897 16.1L19.0597 16.61L19.7597 15.4L18.6797 14.56L17.7897 13.86L17.9297 12.73C17.9697 12.42 17.9797 12.21 17.9797 12C17.9797 11.79 17.9597 11.57 17.9297 11.27L17.7897 10.14L18.6797 9.44L19.7797 8.6ZM12.4997 16C10.2897 16 8.49973 14.21 8.49973 12C8.49973 9.79 10.2897 8 12.4997 8C14.7097 8 16.4997 9.79 16.4997 12C16.4997 14.21 14.7097 16 12.4997 16Z"
    fill="#38A576" />
  <path
    d="M19.9298 12.98C19.9698 12.66 19.9998 12.34 19.9998 12C19.9998 11.66 19.9698 11.34 19.9298 11.02L22.0398 9.37C22.2298 9.22 22.2798 8.95 22.1598 8.73L20.1598 5.27C20.0698 5.11 19.8998 5.02 19.7198 5.02C19.6598 5.02 19.5998 5.03 19.5498 5.05L17.0598 6.05C16.5398 5.65 15.9798 5.32 15.3698 5.07L14.9898 2.42C14.9598 2.18 14.7498 2 14.4998 2H10.4998C10.2498 2 10.0398 2.18 10.0098 2.42L9.62984 5.07C9.01984 5.32 8.45984 5.66 7.93984 6.05L5.44984 5.05C5.38984 5.03 5.32984 5.02 5.26984 5.02C5.09984 5.02 4.92984 5.11 4.83984 5.27L2.83984 8.73C2.70984 8.95 2.76984 9.22 2.95984 9.37L5.06984 11.02C5.02984 11.34 4.99984 11.67 4.99984 12C4.99984 12.33 5.02984 12.66 5.06984 12.98L2.95984 14.63C2.76984 14.78 2.71984 15.05 2.83984 15.27L4.83984 18.73C4.92984 18.89 5.09984 18.98 5.27984 18.98C5.33984 18.98 5.39984 18.97 5.44984 18.95L7.93984 17.95C8.45984 18.35 9.01984 18.68 9.62984 18.93L10.0098 21.58C10.0398 21.82 10.2498 22 10.4998 22H14.4998C14.7498 22 14.9598 21.82 14.9898 21.58L15.3698 18.93C15.9798 18.68 16.5398 18.34 17.0598 17.95L19.5498 18.95C19.6098 18.97 19.6698 18.98 19.7298 18.98C19.8998 18.98 20.0698 18.89 20.1598 18.73L22.1598 15.27C22.2798 15.05 22.2298 14.78 22.0398 14.63L19.9298 12.98ZM17.9498 11.27C17.9898 11.58 17.9998 11.79 17.9998 12C17.9998 12.21 17.9798 12.43 17.9498 12.73L17.8098 13.86L18.6998 14.56L19.7798 15.4L19.0798 16.61L17.8098 16.1L16.7698 15.68L15.8698 16.36C15.4398 16.68 15.0298 16.92 14.6198 17.09L13.5598 17.52L13.3998 18.65L13.1998 20H11.7998L11.6098 18.65L11.4498 17.52L10.3898 17.09C9.95984 16.91 9.55984 16.68 9.15984 16.38L8.24984 15.68L7.18984 16.11L5.91984 16.62L5.21984 15.41L6.29984 14.57L7.18984 13.87L7.04984 12.74C7.01984 12.43 6.99984 12.2 6.99984 12C6.99984 11.8 7.01984 11.57 7.04984 11.27L7.18984 10.14L6.29984 9.44L5.21984 8.6L5.91984 7.39L7.18984 7.9L8.22984 8.32L9.12984 7.64C9.55984 7.32 9.96984 7.08 10.3798 6.91L11.4398 6.48L11.5998 5.35L11.7998 4H13.1898L13.3798 5.35L13.5398 6.48L14.5998 6.91C15.0298 7.09 15.4298 7.32 15.8298 7.62L16.7398 8.32L17.7998 7.89L19.0698 7.38L19.7698 8.59L18.6998 9.44L17.8098 10.14L17.9498 11.27ZM12.4998 8C10.2898 8 8.49984 9.79 8.49984 12C8.49984 14.21 10.2898 16 12.4998 16C14.7098 16 16.4998 14.21 16.4998 12C16.4998 9.79 14.7098 8 12.4998 8ZM12.4998 14C11.3998 14 10.4998 13.1 10.4998 12C10.4998 10.9 11.3998 10 12.4998 10C13.5998 10 14.4998 10.9 14.4998 12C14.4998 13.1 13.5998 14 12.4998 14Z"
    fill="#38A576" />
</svg>